# xmcd
#
# Track frame offsets: 
#        150
#        16010
#        34835
#        55116
#        72440
#        91711
#        108123
#        129668
#        152322
#        171364
#        189754
#        206106
#        226437
#        241062
#
# Disc length: 3408 seconds
#
# Revision: 0
# Processed by: cddbd v1.5.2PL0 Copyright (c) Steve Scherf et al.
# Submitted via: ExactAudioCopy v0.99pb5
#
DISCID=a60d4e0e
DTITLE=Re-Flex - Jamming The Broadcast
DYEAR=2010
DGENRE=Rock
TTITLE0=Ain't Nobody
TTITLE1=Down On Your Luck
TTITLE2=Revolution Now
TTITLE3=Wrong Decision
TTITLE4=Jamming The Broadcast
TTITLE5=Can You Feel It
TTITLE6=Angry Man
TTITLE7=Mystery
TTITLE8=When Did U Stop Loving Me
TTITLE9=It's Only Me
TTITLE10=Recognise Yourself
TTITLE11=Chain Reaction
TTITLE12=Hide Your Love
TTITLE13=Reach Out
EXTD=
EXTT0=
EXTT1=
EXTT2=
EXTT3=
EXTT4=
EXTT5=
EXTT6=
EXTT7=
EXTT8=
EXTT9=
EXTT10=
EXTT11=
EXTT12=
EXTT13=
PLAYORDER=
